REM MD5 ff8c7002690e8ea8f109ac04626937ed
FILE "Lunar - Silver Star Story Complete (USA) (Disc 1).bin" BINARY
  TRACK 01 MODE2/2352
    INDEX 01 00:00:00
  TRACK 02 AUDIO
    INDEX 00 54:48:22
    INDEX 01 54:50:22
  TRACK 03 AUDIO
    INDEX 00 57:18:69
    INDEX 01 57:20:69
REM LEADOUT 58:04:38
